# xmcd
#
# Track frame offsets: 
#        182
#        13785
#        24560
#        38282
#        55047
#        70382
#        92012
#        103840
#        119700
#        136540
#        148970
#        161927
#        179085
#        193270
#        211172
#
# Disc length: 3025 seconds
#
# Revision: 5
# Processed by: cddbd v1.5.2PL0 Copyright (c) Steve Scherf et al.
# Submitted via: ExactAudioCopy v0.99pb5
#
DISCID=dd0bcf0f
DTITLE=The Rascals - Anthology 1965-1972 [CD2]
DYEAR=1992
DGENRE=
TTITLE0=People Got To Be Free
TTITLE1=Island Of Love
TTITLE2=Look Around
TTITLE3=A Ray Of Hope
TTITLE4=Heaven
TTITLE5=See
TTITLE6=I'd Like To Take You Home
TTITLE7=Temptation's 'Bout To Get Me
TTITLE8=Nubia
TTITLE9=Real Thing
TTITLE10=Carry Me Back
TTITLE11=Right On
TTITLE12=Ready For Love
TTITLE13=I Believe
TTITLE14=Glory Glory
EXTD=Part of 2 CD set
EXTT0=
EXTT1=
EXTT2=
EXTT3=
EXTT4=
EXTT5=
EXTT6=
EXTT7=
EXTT8=
EXTT9=
EXTT10=
EXTT11=
EXTT12=
EXTT13=
EXTT14=
PLAYORDER=
